<mxfile host="app.diagrams.net" modified="2024-04-18T19:42:35.106Z" agent="Mozilla/5.0 (Windows NT 10.0; Win64; x64) AppleWebKit/537.36 (KHTML, like Gecko) Chrome/124.0.0.0 Safari/537.36" etag="Qr-1L4Z7YhbjTsvcPPaO" version="22.0.0" type="device">
  <diagram name="Página-1" id="-doGkcwb2Zg3EvVmDMYA">
    <mxGraphModel dx="874" dy="468" grid="1" gridSize="10" guides="1" tooltips="1" connect="1" arrows="1" fold="1" page="1" pageScale="1" pageWidth="827" pageHeight="1169" math="0" shadow="0">
      <root>
        <mxCell id="0" />
        <mxCell id="1" parent="0" />
        <mxCell id="hg1FftoNlqHf9U6TZ1W2-5" style="edgeStyle=orthogonalEdgeStyle;rounded=0;orthogonalLoop=1;jettySize=auto;html=1;exitX=1;exitY=0.5;exitDx=0;exitDy=0;entryX=0;entryY=0.5;entryDx=0;entryDy=0;" edge="1" parent="1" source="hg1FftoNlqHf9U6TZ1W2-1" target="hg1FftoNlqHf9U6TZ1W2-4">
          <mxGeometry relative="1" as="geometry" />
        </mxCell>
        <mxCell id="hg1FftoNlqHf9U6TZ1W2-7" style="edgeStyle=orthogonalEdgeStyle;rounded=0;orthogonalLoop=1;jettySize=auto;html=1;entryX=0.5;entryY=1;entryDx=0;entryDy=0;" edge="1" parent="1" source="hg1FftoNlqHf9U6TZ1W2-1" target="hg1FftoNlqHf9U6TZ1W2-6">
          <mxGeometry relative="1" as="geometry" />
        </mxCell>
        <mxCell id="hg1FftoNlqHf9U6TZ1W2-1" value="&lt;font style=&quot;vertical-align: inherit;&quot;&gt;&lt;font style=&quot;vertical-align: inherit;&quot;&gt;&lt;font style=&quot;vertical-align: inherit;&quot;&gt;&lt;font style=&quot;vertical-align: inherit;&quot;&gt;&lt;font style=&quot;vertical-align: inherit;&quot;&gt;&lt;font style=&quot;vertical-align: inherit;&quot;&gt;&lt;b&gt;&lt;font style=&quot;vertical-align: inherit;&quot;&gt;&lt;font style=&quot;vertical-align: inherit;&quot;&gt;PROCESO&lt;/font&gt;&lt;/font&gt;&lt;/b&gt;&lt;br&gt;&lt;br&gt;&lt;font style=&quot;vertical-align: inherit;&quot;&gt;&lt;font style=&quot;vertical-align: inherit;&quot;&gt; Gestión de pedidos&lt;/font&gt;&lt;/font&gt;&lt;/font&gt;&lt;/font&gt;&lt;/font&gt;&lt;/font&gt;&lt;/font&gt;&lt;/font&gt;" style="shape=step;perimeter=stepPerimeter;whiteSpace=wrap;html=1;fixedSize=1;" vertex="1" parent="1">
          <mxGeometry x="290" y="210" width="230" height="80" as="geometry" />
        </mxCell>
        <mxCell id="hg1FftoNlqHf9U6TZ1W2-3" style="edgeStyle=orthogonalEdgeStyle;rounded=0;orthogonalLoop=1;jettySize=auto;html=1;" edge="1" parent="1" source="hg1FftoNlqHf9U6TZ1W2-2" target="hg1FftoNlqHf9U6TZ1W2-1">
          <mxGeometry relative="1" as="geometry" />
        </mxCell>
        <mxCell id="hg1FftoNlqHf9U6TZ1W2-2" value="&lt;font style=&quot;vertical-align: inherit;&quot;&gt;&lt;font style=&quot;vertical-align: inherit;&quot;&gt;&lt;b&gt;&lt;font style=&quot;vertical-align: inherit;&quot;&gt;&lt;font style=&quot;vertical-align: inherit;&quot;&gt;EVENTO DE ENTRADA&lt;/font&gt;&lt;/font&gt;&lt;br&gt;&lt;/b&gt;&lt;br&gt;&lt;font style=&quot;vertical-align: inherit;&quot;&gt;&lt;font style=&quot;vertical-align: inherit;&quot;&gt;Pedido del cliente&lt;/font&gt;&lt;/font&gt;&lt;br&gt;&lt;/font&gt;&lt;/font&gt;" style="rounded=0;whiteSpace=wrap;html=1;" vertex="1" parent="1">
          <mxGeometry x="60" y="220" width="120" height="60" as="geometry" />
        </mxCell>
        <mxCell id="hg1FftoNlqHf9U6TZ1W2-4" value="&lt;font style=&quot;vertical-align: inherit;&quot;&gt;&lt;font style=&quot;vertical-align: inherit;&quot;&gt;&lt;b&gt;EVENTO DE SALIDA&lt;/b&gt;&lt;br&gt;&lt;br&gt;Entrega del pedido al cliente&lt;br&gt;Recepción del pago y facturación&lt;br&gt;&lt;/font&gt;&lt;/font&gt;" style="rounded=0;whiteSpace=wrap;html=1;" vertex="1" parent="1">
          <mxGeometry x="610" y="220" width="180" height="60" as="geometry" />
        </mxCell>
        <mxCell id="hg1FftoNlqHf9U6TZ1W2-6" value="&lt;font style=&quot;vertical-align: inherit;&quot;&gt;&lt;font style=&quot;vertical-align: inherit;&quot;&gt;&lt;b&gt;OBJETIVO&lt;/b&gt;&lt;br&gt;&lt;br&gt;Venta de artículos de ferretería&lt;br&gt;&lt;/font&gt;&lt;/font&gt;" style="rounded=0;whiteSpace=wrap;html=1;" vertex="1" parent="1">
          <mxGeometry x="345" y="50" width="120" height="60" as="geometry" />
        </mxCell>
        <mxCell id="hg1FftoNlqHf9U6TZ1W2-8" value="&lt;b&gt;RECURSOS HUMANOS&lt;/b&gt;&lt;br&gt;&lt;br&gt;Vendedores&lt;br&gt;Transportistas&lt;br&gt;Personal de mantenimiento" style="rounded=0;whiteSpace=wrap;html=1;" vertex="1" parent="1">
          <mxGeometry x="60" y="370" width="160" height="70" as="geometry" />
        </mxCell>
        <mxCell id="hg1FftoNlqHf9U6TZ1W2-9" value="&lt;b&gt;HERRAMIENTAS&lt;/b&gt;&lt;br&gt;&lt;br&gt;Sistema de seguimiento de pedidos&lt;br&gt;Computadoras&lt;br&gt;Base de datos de cliente" style="rounded=0;whiteSpace=wrap;html=1;" vertex="1" parent="1">
          <mxGeometry x="60" y="480" width="200" height="70" as="geometry" />
        </mxCell>
        <mxCell id="hg1FftoNlqHf9U6TZ1W2-10" value="&lt;b&gt;INFORMACIÓN&lt;/b&gt;&lt;br&gt;&lt;br&gt;Costo de pedido&lt;br&gt;Stock&lt;br&gt;Datos del cliente&lt;br&gt;Método de pago&lt;br&gt;Modo de entrega" style="rounded=0;whiteSpace=wrap;html=1;" vertex="1" parent="1">
          <mxGeometry x="670" y="330" width="120" height="100" as="geometry" />
        </mxCell>
        <mxCell id="hg1FftoNlqHf9U6TZ1W2-11" value="&lt;b&gt;INFRAESTRUCTURA&lt;/b&gt;&lt;br&gt;&lt;br&gt;Punto de venta&lt;br&gt;Electricidad&lt;br&gt;Internet" style="rounded=0;whiteSpace=wrap;html=1;" vertex="1" parent="1">
          <mxGeometry x="660" y="480" width="130" height="70" as="geometry" />
        </mxCell>
        <mxCell id="hg1FftoNlqHf9U6TZ1W2-12" style="edgeStyle=orthogonalEdgeStyle;rounded=0;orthogonalLoop=1;jettySize=auto;html=1;entryX=0.187;entryY=1.025;entryDx=0;entryDy=0;entryPerimeter=0;" edge="1" parent="1" source="hg1FftoNlqHf9U6TZ1W2-8" target="hg1FftoNlqHf9U6TZ1W2-1">
          <mxGeometry relative="1" as="geometry" />
        </mxCell>
        <mxCell id="hg1FftoNlqHf9U6TZ1W2-13" style="edgeStyle=orthogonalEdgeStyle;rounded=0;orthogonalLoop=1;jettySize=auto;html=1;entryX=0.396;entryY=0.975;entryDx=0;entryDy=0;entryPerimeter=0;" edge="1" parent="1" source="hg1FftoNlqHf9U6TZ1W2-9" target="hg1FftoNlqHf9U6TZ1W2-1">
          <mxGeometry relative="1" as="geometry" />
        </mxCell>
        <mxCell id="hg1FftoNlqHf9U6TZ1W2-14" style="edgeStyle=orthogonalEdgeStyle;rounded=0;orthogonalLoop=1;jettySize=auto;html=1;entryX=0.622;entryY=1.013;entryDx=0;entryDy=0;entryPerimeter=0;" edge="1" parent="1" source="hg1FftoNlqHf9U6TZ1W2-11" target="hg1FftoNlqHf9U6TZ1W2-1">
          <mxGeometry relative="1" as="geometry" />
        </mxCell>
        <mxCell id="hg1FftoNlqHf9U6TZ1W2-15" style="edgeStyle=orthogonalEdgeStyle;rounded=0;orthogonalLoop=1;jettySize=auto;html=1;entryX=0.826;entryY=1.025;entryDx=0;entryDy=0;entryPerimeter=0;" edge="1" parent="1" source="hg1FftoNlqHf9U6TZ1W2-10" target="hg1FftoNlqHf9U6TZ1W2-1">
          <mxGeometry relative="1" as="geometry" />
        </mxCell>
      </root>
    </mxGraphModel>
  </diagram>
</mxfile>
